{
  "accessors": [
    {
      "bufferView": 0,
      "componentType": 5126,
      "count": 559,
      "max": [
        20.558862686157227,
        20.558862686157227,
        20.558862686157227
      ],
      "min": [
        -20.558862686157227,
        -20.558862686157227,
        -20.558862686157227
      ],
      "type": "VEC3"
    },
    {
      "bufferView": 0,
      "byteOffset": 12,
      "componentType": 5126,
      "count": 559,
      "type": "VEC3"
    },
    {
      "bufferView": 1,
      "componentType": 5125,
      "count": 2880,
      "type": "SCALAR"
    },
    {
      "bufferView": 2,
      "componentType": 5126,
      "count": 154,
      "max": [
        28.294837951660156,
        27.86497688293457,
        29.29737663269043
      ],
      "min": [
        -28.294837951660156,
        -27.864978790283203,
        0.0
      ],
      "type": "VEC3"
    },
    {
      "bufferView": 2,
      "byteOffset": 12,
      "componentType": 5126,
      "count": 154,
      "type": "VEC3"
    },
    {
      "bufferView": 3,
      "componentType": 5125,
      "count": 648,
      "type": "SCALAR"
    }
  ],
  "asset": {
    "version": "2.0"
  },
  "bufferViews": [
    {
      "buffer": 0,
      "byteLength": 17888,
      "byteStride": 32,
      "target": 34962
    },
    {
      "buffer": 0,
      "byteLength": 11520,
      "byteOffset": 17888,
      "target": 34963
    },
    {
      "buffer": 0,
      "byteLength": 4928,
      "byteOffset": 29408,
      "byteStride": 32,
      "target": 34962
    },
    {
      "buffer": 0,
      "byteLength": 2592,
      "byteOffset": 34336,
      "target": 34963
    }
  ],
  "buffers": [
    {
      "byteLength": 36928,
      "uri": "test12.bin"
    }
  ],
  "materials": [
    {
      "name": "fallback Material",
      "pbrMetallicRoughness": {
        "baseColorFactor": [
          0.10588235294117647,
          0.6941176470588235,
          0.34509803921568627,
          1.0
        ]
      }
    },
    {
      "name": "fallback Material",
      "pbrMetallicRoughness": {
        "baseColorFactor": [
          0.6509803921568628,
          0.8980392156862745,
          0.8980392156862745,
          1.0
        ]
      }
    }
  ],
  "meshes": [
    {
      "name": "Sphere001",
      "primitives": [
        {
          "attributes": {
            "NORMAL": 1,
            "POSITION": 0
          },
          "indices": 2,
          "material": 0,
          "mode": 4
        }
      ]
    },
    {
      "name": "Cylinder001",
      "primitives": [
        {
          "attributes": {
            "NORMAL": 4,
            "POSITION": 3
          },
          "indices": 5,
          "material": 1,
          "mode": 4
        }
      ]
    }
  ],
  "nodes": [
    {
      "matrix": [
        0.01,
        0.0,
        0.0,
        0.0,
        0.0,
        0.01,
        0.0,
        0.0,
        0.0,
        0.0,
        0.01,
        0.0,
        0.0,
        0.0,
        0.0,
        1.0
      ],
      "mesh": 0,
      "name": "Sphere001"
    },
    {
      "children": [
        0
      ],
      "matrix": [
        1.0,
        0.0,
        0.0,
        0.0,
        0.0,
        0.0,
        -1.0,
        0.0,
        0.0,
        1.0,
        0.0,
        0.0,
        -0.07042326450347901,
        0.0,
        -0.0015650066733360292,
        1.0
      ]
    },
    {
      "matrix": [
        0.01,
        0.0,
        0.0,
        0.0,
        0.0,
        0.01,
        0.0,
        0.0,
        0.0,
        0.0,
        0.01,
        0.0,
        0.0,
        0.0,
        0.0,
        1.0
      ],
      "mesh": 1,
      "name": "Cylinder001"
    },
    {
      "children": [
        2
      ],
      "matrix": [
        1.0,
        0.0,
        0.0,
        0.0,
        0.0,
        0.0,
        -1.0,
        0.0,
        0.0,
        1.0,
        0.0,
        0.0,
        0.10057971000671387,
        0.0,
        0.4445913696289063,
        1.0
      ]
    }
  ],
  "scenes": [
    {
      "nodes": [
        1,
        3
      ]
    }
  ]
}
